<svg width="10" height="10" viewBox="0 0 10 10" fill="none" xmlns="http://www.w3.org/2000/svg">
<path d="M4.65726 8.15343C4.69549 8.20894 4.74663 8.25434 4.8063 8.2857C4.86596 8.31705 4.93236 8.33344 4.99976 8.33344C5.06716 8.33344 5.13356 8.31705 5.19322 8.2857C5.25289 8.25434 5.30403 8.20894 5.34226 8.15343L9.09226 2.73676C9.13567 2.67428 9.16112 2.6011 9.16586 2.52518C9.17059 2.44925 9.15443 2.37348 9.11913 2.30609C9.08383 2.2387 9.03073 2.18228 8.96561 2.14295C8.90049 2.10362 8.82583 2.08289 8.74976 2.08301H1.24976C1.17386 2.08332 1.09948 2.10432 1.03463 2.14374C0.96977 2.18317 0.916886 2.23952 0.881664 2.30676C0.846441 2.37399 0.830212 2.44955 0.834722 2.52531C0.839232 2.60108 0.86431 2.67418 0.90726 2.73676L4.65726 8.15343Z" fill="white"/>
</svg>
