<svg width="10" height="10" viewBox="0 0 10 10" fill="none" xmlns="http://www.w3.org/2000/svg">
<path d="M4.65726 1.84657C4.69549 1.79106 4.74663 1.74566 4.8063 1.7143C4.86596 1.68295 4.93236 1.66656 4.99976 1.66656C5.06716 1.66656 5.13356 1.68295 5.19322 1.7143C5.25289 1.74566 5.30403 1.79106 5.34226 1.84657L9.09226 7.26324C9.13567 7.32572 9.16112 7.3989 9.16586 7.47482C9.17059 7.55075 9.15443 7.62652 9.11913 7.69391C9.08383 7.7613 9.03073 7.81772 8.96561 7.85705C8.90049 7.89638 8.82583 7.91711 8.74976 7.91699H1.24976C1.17386 7.91668 1.09948 7.89568 1.03463 7.85626C0.96977 7.81683 0.916886 7.76048 0.881664 7.69324C0.846441 7.62601 0.830212 7.55045 0.834722 7.47469C0.839232 7.39892 0.86431 7.32582 0.90726 7.26324L4.65726 1.84657Z" fill="white"/>
</svg>
